<svg width="300" height="46" viewBox="0 0 300 46" fill="none" xmlns="http://www.w3.org/2000/svg">
<path d="M204.165 34.7687L201.672 28.43L193.713 28.4581L191.283 34.8108L188.947 34.8178L196.736 14.753L198.684 14.746L206.55 34.7652H204.158L204.165 34.7687ZM200.95 26.3429L198.618 20.1656C198.314 19.3798 198.003 18.4222 197.693 17.2892C197.49 18.1661 197.204 19.1237 196.837 20.1691L194.512 26.3674L200.95 26.3429Z" fill="#E63338"/>
<path d="M211.154 27.0865C211.541 26.5323 212.131 25.8061 212.931 24.9011L217.72 19.7691L220.405 19.7621L214.386 26.1499L220.866 34.7195L218.129 34.7266L212.854 27.6758L211.15 29.1491L211.171 34.7476H208.944L208.881 13.5112L211.108 13.5042L211.14 24.7678C211.14 25.2694 211.115 26.0376 211.038 27.083H211.15L211.154 27.0865Z" fill="#E63338"/>
<path d="M232.715 34.6846L232.258 32.5553H232.146C231.416 33.4954 230.669 34.1339 229.936 34.4706C229.199 34.8003 228.274 34.9722 227.168 34.9757C225.691 34.9828 224.532 34.6004 223.697 33.8357C222.856 33.0815 222.437 31.9871 222.434 30.5804C222.42 27.5567 224.815 25.9676 229.632 25.8098L232.153 25.7186V24.789C232.146 23.6139 231.898 22.7509 231.388 22.1932C230.886 21.6319 230.083 21.3548 228.976 21.3618C227.733 21.3618 226.33 21.7547 224.759 22.5194L224.071 20.79C224.801 20.3796 225.604 20.0639 226.483 19.8359C227.356 19.6114 228.229 19.4921 229.109 19.4921C230.882 19.4816 232.205 19.878 233.054 20.6638C233.912 21.4565 234.356 22.7264 234.356 24.4698L234.387 34.6811H232.712L232.715 34.6846ZM227.614 33.1061C229.021 33.1061 230.121 32.7097 230.917 31.945C231.72 31.1592 232.122 30.0788 232.115 28.6862L232.108 27.3322L229.856 27.4339C228.061 27.504 226.77 27.7917 225.981 28.2828C225.185 28.7844 224.794 29.5596 224.797 30.6085C224.797 31.4223 225.045 32.0432 225.544 32.4711C226.03 32.8991 226.728 33.1131 227.614 33.1061Z" fill="#E63338"/>
<path d="M249.169 32.6255H249.043C248.003 34.1514 246.446 34.9091 244.368 34.9231C242.427 34.9231 240.912 34.2671 239.827 32.9271C238.741 31.5906 238.189 29.6929 238.179 27.2199C238.175 24.7539 238.713 22.8386 239.799 21.4705C240.877 20.099 242.393 19.4149 244.327 19.4079C246.344 19.4044 247.902 20.1376 248.98 21.6073H249.158L249.057 20.5304L248.994 19.4746L248.98 13.392L251.232 13.3815L251.302 34.6214L249.473 34.6284L249.162 32.6255H249.169ZM244.655 33.0183C246.194 33.0183 247.312 32.5974 247.996 31.7485C248.694 30.9066 249.036 29.5421 249.033 27.6724L249.022 27.1883C249.022 25.0696 248.663 23.5577 247.961 22.6492C247.256 21.7512 246.132 21.2987 244.588 21.3092C243.276 21.3162 242.26 21.8318 241.562 22.8596C240.863 23.9015 240.514 25.3572 240.521 27.2444C240.525 29.1492 240.881 30.5979 241.579 31.5661C242.277 32.5413 243.3 33.0218 244.651 33.0148" fill="#E63338"/>
<path d="M262.376 34.8669C260.176 34.8774 258.441 34.2074 257.167 32.8639C255.886 31.5169 255.247 29.6543 255.236 27.2549C255.226 24.845 255.813 22.9262 256.989 21.5056C258.169 20.0744 259.757 19.3658 261.744 19.3588C263.608 19.3588 265.092 19.9656 266.185 21.1969C267.27 22.4246 267.822 24.0522 267.822 26.0693L267.829 27.511L257.576 27.5425C257.624 29.293 258.061 30.6259 258.909 31.538C259.751 32.443 260.931 32.892 262.449 32.892C264.055 32.885 265.64 32.5482 267.208 31.8642L267.215 33.8847C266.419 34.2285 265.668 34.4881 264.952 34.6354C264.244 34.7897 263.378 34.8634 262.376 34.8669ZM261.73 21.2565C260.529 21.267 259.579 21.6564 258.871 22.4422C258.162 23.2279 257.747 24.3153 257.621 25.7009L265.413 25.6764C265.403 24.2452 265.085 23.1542 264.457 22.393C263.814 21.6354 262.91 21.2565 261.73 21.26" fill="#E63338"/>
<path d="M290.685 34.5055L290.65 24.7748C290.65 23.5786 290.395 22.6876 289.886 22.0948C289.373 21.4985 288.584 21.2038 287.526 21.2073C286.119 21.2108 285.079 21.6177 284.415 22.428C283.741 23.2489 283.413 24.4871 283.417 26.1709L283.445 34.5301L281.189 34.5371L281.161 24.7993C281.161 23.6067 280.9 22.7157 280.393 22.1194C279.88 21.5335 279.088 21.2319 278.012 21.2389C276.602 21.2389 275.562 21.6704 274.905 22.5228C274.256 23.3752 273.935 24.7748 273.942 26.7146L273.959 34.5616L271.704 34.5687L271.662 19.6077L273.498 19.5972L273.865 21.6458H273.977C274.396 20.9127 275 20.3444 275.775 19.934C276.543 19.52 277.415 19.3096 278.376 19.3096C280.694 19.3096 282.223 20.1409 282.945 21.8352H283.054C283.501 21.053 284.132 20.4321 284.981 19.9691C285.819 19.513 286.782 19.2885 287.861 19.2815C289.54 19.278 290.804 19.7025 291.642 20.5689C292.483 21.4388 292.909 22.8279 292.913 24.7362L292.941 34.4985H290.689L290.685 34.5055Z" fill="#E63338"/>
<path d="M297.34 15.4686C297.34 14.9494 297.466 14.5706 297.717 14.3286C297.968 14.0865 298.289 13.9637 298.663 13.9637C299.037 13.9637 299.344 14.083 299.609 14.3286C299.871 14.5741 299.997 14.9494 300 15.4616C300 15.9737 299.867 16.3526 299.609 16.6016C299.351 16.8577 299.037 16.977 298.68 16.977C298.296 16.977 297.982 16.8577 297.724 16.6051C297.469 16.3596 297.347 15.9807 297.34 15.4686ZM299.846 34.4811L297.591 34.4881L297.549 19.5272L299.801 19.5166L299.85 34.4811H299.846Z" fill="#E63338"/>
<path d="M51.7105 15.1703L59 15.1458C62.6028 15.1388 65.1967 16.9909 65.2072 20.2988C65.2142 22.5298 64.0098 23.975 62.8018 24.6029V24.6555C64.9698 25.2974 66.0137 27.332 66.0172 29.363C66.0276 33.3725 62.8577 35.1931 59.1466 35.2036L51.7699 35.2246L51.707 15.1668L51.7105 15.1703ZM59.0559 23.3401C60.6024 23.3401 61.4717 22.2 61.4682 20.7583C61.4682 19.3166 60.6164 18.2748 58.986 18.2818L55.4041 18.2923L55.4146 23.3506L59.0524 23.3401H59.0559ZM59.4189 32.0676C61.2204 32.0606 62.2258 30.8433 62.2223 29.1455C62.2223 27.4793 61.1715 26.2691 59.405 26.2726L55.4286 26.2867L55.446 32.0781L59.4189 32.0676Z" fill="#414B59"/>
<path d="M68.1327 35.179L68.0908 20.7723L71.6343 20.7583L71.6727 35.1685L68.1327 35.179Z" fill="#414B59"/>
<path d="M78.1788 15.088L74.6074 15.0986L74.6667 35.1599L78.2381 35.1492L78.1788 15.088Z" fill="#414B59"/>
<path d="M94.4805 20.5865L94.5224 34.2214C94.5398 39.1675 90.7206 41.0442 86.9816 41.0547C85.1801 41.0582 83.267 40.5601 81.888 39.827L82.9772 36.9961C82.9772 36.9961 84.7507 37.9538 86.9466 37.9468C89.1111 37.9397 90.9929 36.9996 90.9824 34.4003V33.7233C90.9824 33.3866 91.0068 32.9621 91.0068 32.9621H90.9475C90.1096 34.1793 88.8737 34.8353 86.9641 34.8388C82.855 34.8493 80.5125 31.5239 80.502 27.5706C80.4881 23.6138 82.6979 20.3865 86.8349 20.376C90.1515 20.3655 91.2547 22.393 91.2547 22.393H91.3105C91.3105 22.393 91.3071 20.7935 91.3036 20.597L94.4805 20.59V20.5865ZM91.0452 27.5671C91.0313 24.2873 89.4009 23.4173 87.4633 23.4208C85.2953 23.4278 84.1223 25.0134 84.1293 27.4443C84.1363 29.9594 85.4105 31.8186 87.7112 31.8116C89.4253 31.8081 91.0522 30.8118 91.0452 27.5671Z" fill="#414B59"/>
<path d="M103.959 20.3234C108.068 20.3129 110.324 23.3296 110.334 27.1426C110.334 27.5671 110.254 28.4721 110.254 28.4721L100.356 28.5002C100.646 31.0433 102.507 32.3623 104.672 32.3588C106.976 32.3518 108.686 30.7382 108.686 30.7382L110.184 33.2182C110.184 33.2182 107.999 35.4001 104.424 35.4106C99.6722 35.4281 96.7153 31.9869 96.6978 27.8933C96.6838 23.4559 99.6548 20.3409 103.956 20.3269M106.675 25.9991C106.609 24.2767 105.429 23.0946 103.966 23.0981C102.14 23.1051 100.845 24.2101 100.461 26.0166L106.675 25.9991Z" fill="#414B59"/>
<path d="M126.03 35.0036L124.096 29.8646L117.344 29.8856L115.595 35.0351L111.444 35.0457L118.761 14.9668L122.608 14.9563L129.87 34.9895L126.03 35.0036ZM123.24 26.8163L120.713 19.0464H120.657L118.178 26.8338L123.24 26.8163Z" fill="#414B59"/>
<path d="M140.948 34.9581C140.948 34.6529 140.948 33.4427 140.948 33.4427H140.888C140.888 33.4427 139.712 35.3053 136.423 35.3124C132.541 35.3264 130.031 32.2535 130.021 27.788C130.007 23.2103 132.723 20.2392 136.521 20.2252C139.642 20.2181 140.658 21.7967 140.658 21.7967L140.665 14.9003L144.236 14.8862L144.299 34.9475L140.951 34.9546L140.948 34.9581ZM140.784 27.7284C140.784 25.4939 139.618 23.2945 137.23 23.305C135.261 23.3121 133.634 24.9257 133.644 27.7775C133.644 30.5171 135.093 32.2921 137.198 32.2851C139.056 32.2781 140.794 30.9205 140.784 27.7284Z" fill="#414B59"/>
<path d="M180.191 34.8389L180.167 26.4937C180.16 24.8556 179.633 23.5191 177.828 23.5261C175.286 23.5331 174.539 25.6974 174.546 27.4864C174.546 28.0722 174.567 34.8599 174.567 34.8599L170.996 34.8704L170.971 26.1289C170.964 24.5749 170.402 23.3998 168.535 23.4068C166.492 23.4138 165.344 24.8415 165.351 26.9182C165.351 27.5005 165.351 27.9109 165.351 28.5598L165.372 34.888L161.828 34.902L161.783 20.7023L165.187 20.6918C165.19 21.004 165.19 22.1054 165.19 22.1054C166.307 20.6356 168.021 20.1375 169.879 20.1305C171.705 20.127 173.352 20.9373 173.974 22.8912C174.927 20.9584 176.739 20.2743 179.015 20.2638C181.127 20.2603 183.717 22.0002 183.728 25.7886L183.752 34.8354L180.184 34.8459L180.191 34.8389Z" fill="#414B59"/>
<path d="M72.1516 16.7735C72.1586 18.0503 71.1287 19.0886 69.8579 19.0957C68.5837 19.0957 67.5503 18.0679 67.5503 16.791C67.5503 15.5106 68.5697 14.4723 69.844 14.4723C71.1147 14.4653 72.1481 15.4966 72.1516 16.777" fill="#414B59"/>
<path d="M159.021 34.902L158.993 25.8904C158.983 22.6702 157.565 20.1586 152.786 20.1761C151.644 20.1761 149.319 20.5971 147.608 21.8774L149.141 24.3294C150.248 23.3156 152.126 22.9438 152.765 22.9438C154.594 22.9368 155.408 23.4524 155.415 25.515V25.6273H154.968C152.636 25.6378 146.453 26.2692 146.463 30.7908C146.474 33.6708 148.809 35.2703 151.368 35.2668C154.601 35.2563 155.694 33.32 155.694 33.32V34.916L159.017 34.9055L159.021 34.902ZM155.488 28.9948C155.491 31.0364 154.144 32.4641 152.231 32.4676C150.775 32.4676 150.07 31.5696 150.063 30.6084C150.056 28.6019 153.009 28.0968 154.863 28.0898H155.484L155.488 28.9983V28.9948Z" fill="#414B59"/>
<path d="M22.9193 45.9202C10.2814 45.9202 0 35.6345 0 22.9965C0 10.3584 10.2814 0.0797119 22.9193 0.0797119C29.0462 0.0797119 34.7996 2.46004 39.1286 6.7914C43.4611 11.1193 45.8455 16.8781 45.8455 22.9965C45.8455 35.6345 35.5606 45.9202 22.9158 45.9202M22.9158 3.43381C12.1282 3.43381 3.35148 12.2117 3.35148 22.9965C3.35148 33.7812 12.1317 42.5591 22.9158 42.5591C33.6999 42.5591 42.4835 33.7847 42.4835 22.9965C42.4835 17.7681 40.4517 12.8609 36.7546 9.16474C33.0575 5.4686 28.1455 3.43381 22.9193 3.43381" fill="#414B59"/>
<path d="M22.9225 26.2039C21.0408 26.2039 19.5151 24.6752 19.5151 22.794C19.5151 20.9127 21.0408 19.384 22.9225 19.384C24.8042 19.384 26.3298 20.9197 26.3298 22.794C26.3298 24.6682 24.8042 26.2039 22.9225 26.2039Z" fill="#414B59"/>
<path d="M32.1778 31.4253C31.5809 31.4253 30.9978 31.2682 30.4742 30.9681C28.8473 30.0292 28.2887 27.9386 29.2278 26.3156C29.8353 25.2616 30.9664 24.6089 32.1848 24.6089C32.7783 24.6089 33.3648 24.7659 33.885 25.0626C34.674 25.5198 35.2396 26.2563 35.4735 27.1323C35.7109 28.0118 35.5887 28.9333 35.1313 29.7221C34.5239 30.7726 33.3928 31.4253 32.1743 31.4253" fill="#652980"/>
<path d="M32.3772 20.7488C31.1623 20.7488 30.0277 20.0962 29.4202 19.0456C28.9664 18.2568 28.8407 17.3389 29.0781 16.4594C29.312 15.5798 29.8776 14.8434 30.6666 14.3897C31.1833 14.0895 31.7733 13.929 32.3702 13.929C33.5852 13.929 34.7163 14.5851 35.3237 15.6357C35.7776 16.4279 35.9033 17.3459 35.6624 18.2219C35.425 19.1015 34.8629 19.8379 34.0739 20.2951C33.5537 20.5918 32.9672 20.7523 32.3702 20.7523" fill="#3BABE1"/>
<path d="M22.9225 15.2901C21.0443 15.2901 19.5151 13.7579 19.5151 11.8836C19.5151 10.0094 21.0408 8.47717 22.9225 8.47717C24.8042 8.47717 26.3298 10.0059 26.3298 11.8836C26.3298 13.7614 24.8042 15.2901 22.9225 15.2901Z" fill="#E63338"/>
<path d="M13.4653 20.7488C12.8683 20.7488 12.2853 20.5883 11.7651 20.2916C10.1348 19.3493 9.57619 17.2621 10.5153 15.6357C11.1263 14.5851 12.2574 13.929 13.4758 13.929C14.0693 13.929 14.6593 14.093 15.176 14.3897C15.965 14.8434 16.5305 15.5798 16.7644 16.4594C16.9983 17.3389 16.8796 18.2533 16.4258 19.0456C15.8218 20.0962 14.6837 20.7488 13.4688 20.7488" fill="#009F3E"/>
<path d="M13.5074 31.6207C12.2925 31.6207 11.1614 30.9646 10.5539 29.914C10.1001 29.1252 9.97791 28.2073 10.2118 27.3278C10.4492 26.4447 11.0148 25.7118 11.8003 25.2546C12.3205 24.9579 12.9105 24.7974 13.504 24.7974C14.7224 24.7974 15.8535 25.4535 16.4609 26.5041C16.9148 27.2964 17.0335 28.2108 16.7996 29.0903C16.5622 29.9664 15.9966 30.7028 15.2076 31.16C14.6909 31.4602 14.1044 31.6207 13.504 31.6207" fill="#F39600"/>
<path d="M19.9272 43.9063V32.4131C19.9272 30.7412 21.2818 29.3835 22.9541 29.3835C24.6263 29.3835 25.9809 30.7412 25.9809 32.4131V43.9063" fill="#414B59"/>
</svg>
