<svg width="48" height="48" viewBox="0 0 48 48" fill="none" xmlns="http://www.w3.org/2000/svg">
<g id="search_FILL1_wght500_GRAD0_opsz48 1">
<path id="Vector" d="M39.7881 42.2848L26.5664 29.075C25.5744 29.9171 24.4144 30.574 23.0864 31.0457C21.7584 31.5174 20.339 31.7532 18.8283 31.7532C15.1672 31.7532 12.068 30.4833 9.53085 27.9435C6.99368 25.4036 5.7251 22.3391 5.7251 18.75C5.7251 15.1608 6.99503 12.0963 9.5349 9.55645C12.0747 7.01662 15.1475 5.7467 18.7533 5.7467C22.3591 5.7467 25.4236 7.01662 27.9468 9.55645C30.47 12.0963 31.7316 15.1633 31.7316 18.7575C31.7316 20.2017 31.5042 21.5846 31.0495 22.906C30.5948 24.2273 29.9128 25.4674 29.0033 26.6261L42.2751 39.7978L39.7881 42.2848ZM18.7826 28.3467C21.4403 28.3467 23.6951 27.4093 25.5471 25.5345C27.3991 23.6597 28.3251 21.3982 28.3251 18.75C28.3251 16.1018 27.3985 13.8403 25.5453 11.9655C23.6922 10.0906 21.4379 9.1532 18.7826 9.1532C16.0995 9.1532 13.8202 10.0906 11.9447 11.9655C10.0693 13.8403 9.1316 16.1018 9.1316 18.75C9.1316 21.3982 10.0687 23.6597 11.943 25.5345C13.8172 27.4093 16.0971 28.3467 18.7826 28.3467Z" fill="black"/>
</g>
</svg>
