<svg width="46" height="46" viewBox="0 0 46 46" fill="none" xmlns="http://www.w3.org/2000/svg">
<g id="Group 105">
<path id="Vector" d="M22.9193 45.9202C10.2814 45.9202 0 35.6345 0 22.9965C0 10.3584 10.2814 0.0797119 22.9193 0.0797119C29.0462 0.0797119 34.7996 2.46004 39.1286 6.7914C43.4611 11.1193 45.8455 16.8781 45.8455 22.9965C45.8455 35.6345 35.5606 45.9202 22.9158 45.9202M22.9158 3.43381C12.1282 3.43381 3.35148 12.2117 3.35148 22.9965C3.35148 33.7812 12.1317 42.5591 22.9158 42.5591C33.6999 42.5591 42.4835 33.7847 42.4835 22.9965C42.4835 17.7681 40.4517 12.8609 36.7546 9.16474C33.0575 5.4686 28.1455 3.43381 22.9193 3.43381" fill="#414B59"/>
<path id="Vector_2" d="M22.9225 26.2039C21.0408 26.2039 19.5151 24.6752 19.5151 22.794C19.5151 20.9127 21.0408 19.384 22.9225 19.384C24.8042 19.384 26.3298 20.9197 26.3298 22.794C26.3298 24.6682 24.8042 26.2039 22.9225 26.2039Z" fill="#414B59"/>
<path id="Vector_3" d="M32.1778 31.4253C31.5809 31.4253 30.9978 31.2682 30.4742 30.9681C28.8473 30.0292 28.2887 27.9386 29.2278 26.3156C29.8353 25.2616 30.9664 24.6089 32.1848 24.6089C32.7783 24.6089 33.3648 24.7659 33.885 25.0626C34.674 25.5198 35.2396 26.2563 35.4735 27.1323C35.7109 28.0118 35.5887 28.9333 35.1313 29.7221C34.5239 30.7726 33.3928 31.4253 32.1743 31.4253" fill="#652980"/>
<path id="Vector_4" d="M32.3772 20.7488C31.1623 20.7488 30.0277 20.0962 29.4202 19.0456C28.9664 18.2568 28.8407 17.3389 29.0781 16.4594C29.312 15.5798 29.8776 14.8434 30.6666 14.3897C31.1833 14.0895 31.7733 13.929 32.3702 13.929C33.5852 13.929 34.7163 14.5851 35.3237 15.6357C35.7776 16.4279 35.9033 17.3459 35.6624 18.2219C35.425 19.1015 34.8629 19.8379 34.0739 20.2951C33.5537 20.5918 32.9672 20.7523 32.3702 20.7523" fill="#3BABE1"/>
<path id="Vector_5" d="M22.9225 15.2901C21.0443 15.2901 19.5151 13.7579 19.5151 11.8836C19.5151 10.0094 21.0408 8.47717 22.9225 8.47717C24.8042 8.47717 26.3298 10.0059 26.3298 11.8836C26.3298 13.7614 24.8042 15.2901 22.9225 15.2901Z" fill="#E63338"/>
<path id="Vector_6" d="M13.4653 20.7488C12.8683 20.7488 12.2853 20.5883 11.7651 20.2916C10.1348 19.3493 9.57619 17.2621 10.5153 15.6357C11.1263 14.5851 12.2574 13.929 13.4758 13.929C14.0693 13.929 14.6593 14.093 15.176 14.3897C15.965 14.8434 16.5305 15.5798 16.7644 16.4594C16.9983 17.3389 16.8796 18.2533 16.4258 19.0456C15.8218 20.0962 14.6837 20.7488 13.4688 20.7488" fill="#009F3E"/>
<path id="Vector_7" d="M13.5074 31.6207C12.2925 31.6207 11.1614 30.9646 10.5539 29.914C10.1001 29.1252 9.97791 28.2073 10.2118 27.3278C10.4492 26.4447 11.0148 25.7118 11.8003 25.2546C12.3205 24.9579 12.9105 24.7974 13.504 24.7974C14.7224 24.7974 15.8535 25.4535 16.4609 26.5041C16.9148 27.2964 17.0335 28.2108 16.7996 29.0903C16.5622 29.9664 15.9966 30.7028 15.2076 31.16C14.6909 31.4602 14.1044 31.6207 13.504 31.6207" fill="#F39600"/>
<path id="Vector_8" d="M19.9272 43.9063V32.4131C19.9272 30.7412 21.2818 29.3835 22.9541 29.3835C24.6263 29.3835 25.9809 30.7412 25.9809 32.4131V43.9063" fill="#414B59"/>
</g>
</svg>
