<svg width="25" height="22" viewBox="0 0 25 22" fill="none" xmlns="http://www.w3.org/2000/svg">
<g id="Group 7">
<path id="Vector" d="M3.40625 5.36523C3.40625 6.41363 3.71713 7.43848 4.29959 8.31019C4.88205 9.1819 5.70992 9.86131 6.67851 10.2625C7.6471 10.6637 8.71291 10.7687 9.74116 10.5642C10.7694 10.3596 11.7139 9.85478 12.4552 9.11345C13.1966 8.37212 13.7014 7.42761 13.906 6.39936C14.1105 5.37111 14.0055 4.3053 13.6043 3.33671C13.2031 2.36812 12.5237 1.54025 11.652 0.957796C10.7803 0.375338 9.75542 0.0644531 8.70703 0.0644531C7.30118 0.0644531 5.9529 0.622927 4.95881 1.61702C3.96472 2.6111 3.40625 3.95938 3.40625 5.36523Z" fill="#414B59"/>
<rect id="Rectangle 34" x="0.755859" y="13.3164" width="15.9023" height="7.95117" rx="3.97559" fill="#414B59"/>
<path id="Union" fill-rule="evenodd" clip-rule="evenodd" d="M21.959 5.36523H19.3086V8.01562H16.6582V10.666H19.3086V13.3164H21.959V10.666H24.6094V8.01562H21.959V5.36523Z" fill="#414B59"/>
</g>
</svg>
