<svg width="25" height="24" viewBox="0 0 25 24" fill="none" xmlns="http://www.w3.org/2000/svg">
<g id="Group">
<path id="Vector" d="M0.755859 3.12737C0.755859 2.30001 1.07 1.50654 1.62918 0.921509C2.18835 0.336479 2.94676 0.0078125 3.73755 0.0078125L21.6277 0.0078125C22.4185 0.0078125 23.1769 0.336479 23.7361 0.921509C24.2952 1.50654 24.6094 2.30001 24.6094 3.12737V15.6056C24.6094 16.4329 24.2952 17.2264 23.7361 17.8114C23.1769 18.3965 22.4185 18.7251 21.6277 18.7251H7.33645C6.94108 18.7252 6.56194 18.8896 6.28242 19.1822L2.02904 23.6322C1.92488 23.7415 1.79207 23.8159 1.64744 23.8462C1.5028 23.8764 1.35284 23.8611 1.21653 23.8022C1.08022 23.7432 0.963686 23.6433 0.881683 23.515C0.799679 23.3868 0.755891 23.2359 0.755859 23.0816V3.12737ZM8.21008 9.36648C8.21008 8.9528 8.05301 8.55606 7.77342 8.26355C7.49384 7.97103 7.11463 7.8067 6.71924 7.8067C6.32384 7.8067 5.94464 7.97103 5.66505 8.26355C5.38546 8.55606 5.22839 8.9528 5.22839 9.36648C5.22839 9.78016 5.38546 10.1769 5.66505 10.4694C5.94464 10.7619 6.32384 10.9263 6.71924 10.9263C7.11463 10.9263 7.49384 10.7619 7.77342 10.4694C8.05301 10.1769 8.21008 9.78016 8.21008 9.36648ZM14.1735 9.36648C14.1735 8.9528 14.0164 8.55606 13.7368 8.26355C13.4572 7.97103 13.078 7.8067 12.6826 7.8067C12.2872 7.8067 11.908 7.97103 11.6284 8.26355C11.3488 8.55606 11.1918 8.9528 11.1918 9.36648C11.1918 9.78016 11.3488 10.1769 11.6284 10.4694C11.908 10.7619 12.2872 10.9263 12.6826 10.9263C13.078 10.9263 13.4572 10.7619 13.7368 10.4694C14.0164 10.1769 14.1735 9.78016 14.1735 9.36648ZM18.646 10.9263C19.0414 10.9263 19.4206 10.7619 19.7002 10.4694C19.9798 10.1769 20.1368 9.78016 20.1368 9.36648C20.1368 8.9528 19.9798 8.55606 19.7002 8.26355C19.4206 7.97103 19.0414 7.8067 18.646 7.8067C18.2506 7.8067 17.8714 7.97103 17.5918 8.26355C17.3122 8.55606 17.1552 8.9528 17.1552 9.36648C17.1552 9.78016 17.3122 10.1769 17.5918 10.4694C17.8714 10.7619 18.2506 10.9263 18.646 10.9263Z" fill="#414B59"/>
</g>
</svg>
