<svg width="25" height="21" viewBox="0 0 25 21" fill="none" xmlns="http://www.w3.org/2000/svg">
<g id="Group">
<path id="Vector" d="M16.6582 4.43384C16.6582 5.48823 16.2393 6.49943 15.4938 7.245C14.7482 7.99057 13.737 8.40942 12.6826 8.40942C11.6282 8.40942 10.617 7.99057 9.87145 7.245C9.12589 6.49943 8.70703 5.48823 8.70703 4.43384C8.70703 3.37945 9.12589 2.36824 9.87145 1.62267C10.617 0.877107 11.6282 0.458252 12.6826 0.458252C13.737 0.458252 14.7482 0.877107 15.4938 1.62267C16.2393 2.36824 16.6582 3.37945 16.6582 4.43384Z" fill="#414B59"/>
<path id="Vector_2" d="M23.2842 7.08423C23.2842 7.78716 23.0049 8.46129 22.5079 8.95834C22.0109 9.45538 21.3367 9.73462 20.6338 9.73462C19.9309 9.73462 19.2567 9.45538 18.7597 8.95834C18.2626 8.46129 17.9834 7.78716 17.9834 7.08423C17.9834 6.3813 18.2626 5.70716 18.7597 5.21012C19.2567 4.71307 19.9309 4.43384 20.6338 4.43384C21.3367 4.43384 22.0109 4.71307 22.5079 5.21012C23.0049 5.70716 23.2842 6.3813 23.2842 7.08423Z" fill="#414B59"/>
<path id="Vector_3" d="M7.38184 7.08423C7.38184 7.78716 7.1026 8.46129 6.60555 8.95834C6.10851 9.45538 5.43437 9.73462 4.73145 9.73462C4.02852 9.73462 3.35438 9.45538 2.85734 8.95834C2.36029 8.46129 2.08105 7.78716 2.08105 7.08423C2.08105 6.3813 2.36029 5.70716 2.85734 5.21012C3.35438 4.71307 4.02852 4.43384 4.73145 4.43384C5.43437 4.43384 6.10851 4.71307 6.60555 5.21012C7.1026 5.70716 7.38184 6.3813 7.38184 7.08423Z" fill="#414B59"/>
<path id="Vector_4" d="M20.6338 20.3359V16.3604C20.6357 15.013 20.2936 13.6875 19.6399 12.5093C20.2274 12.359 20.8415 12.3448 21.4353 12.4679C22.0292 12.591 22.5871 12.848 23.0664 13.2195C23.5458 13.591 23.934 14.0671 24.2014 14.6114C24.4688 15.1557 24.6083 15.7539 24.6094 16.3604V20.3359H20.6338Z" fill="#414B59"/>
<path id="Vector_5" d="M5.72534 12.5099C5.07169 13.6881 4.72959 15.0136 4.73145 16.3609V20.3365H0.75586V16.3609C0.755604 15.754 0.894294 15.1552 1.1613 14.6102C1.4283 14.0652 1.81654 13.5885 2.29624 13.2168C2.77595 12.845 3.3344 12.5881 3.92879 12.4655C4.52318 12.343 5.13773 12.3582 5.72534 12.5099Z" fill="#414B59"/>
<rect id="Rectangle 38" x="7.38184" y="11.0598" width="10.6016" height="9.27637" rx="3.97559" fill="#414B59"/>
</g>
</svg>
