<svg width="48" height="48" viewBox="0 0 48 48" fill="none" xmlns="http://www.w3.org/2000/svg">
<g id="account_circle_FILL1_wght500_GRAD0_opsz48 (1) 1">
<path id="Vector" d="M11.1479 35.1185C13.2399 33.7931 15.3069 32.7947 17.349 32.1233C19.391 31.452 21.608 31.1163 24.0001 31.1163C26.3921 31.1163 28.6215 31.456 30.6881 32.1353C32.7548 32.8147 34.8262 33.8091 36.9022 35.1185C38.353 33.3105 39.3807 31.5079 39.9854 29.7108C40.5901 27.9137 40.8925 26.0101 40.8925 24C40.8925 19.2046 39.2761 15.1903 36.0435 11.9572C32.8108 8.72412 28.797 7.10759 24.0022 7.10759C19.2073 7.10759 15.1928 8.72412 11.9588 11.9572C8.7247 15.1903 7.10767 19.2046 7.10767 24C7.10767 26.0094 7.41647 27.9117 8.03407 29.7069C8.6517 31.5021 9.68966 33.306 11.1479 35.1185ZM23.9908 25.5837C22.0385 25.5837 20.3983 24.9163 19.0703 23.5814C17.7423 22.2466 17.0783 20.6057 17.0783 18.6586C17.0783 16.7116 17.7454 15.0717 19.0796 13.7391C20.4138 12.4065 22.0571 11.7402 24.0094 11.7402C25.9617 11.7402 27.6018 12.4096 28.9298 13.7484C30.2578 15.0872 30.9218 16.7302 30.9218 18.6772C30.9218 20.6243 30.2547 22.2621 28.9205 23.5907C27.5863 24.9194 25.9431 25.5837 23.9908 25.5837ZM23.9798 44.2989C21.1764 44.2989 18.5375 43.7668 16.063 42.7026C13.5886 41.6384 11.4339 40.1829 9.59902 38.3362C7.76412 36.4895 6.32242 34.3348 5.27392 31.8722C4.22542 29.4096 3.70117 26.7777 3.70117 23.9763C3.70117 21.175 4.23414 18.5423 5.30007 16.0784C6.36601 13.6145 7.82126 11.4686 9.66582 9.64074C11.5104 7.81284 13.6642 6.36392 16.1274 5.29399C18.5905 4.22405 21.2231 3.68909 24.0251 3.68909C26.827 3.68909 29.4596 4.22405 31.9228 5.29399C34.3859 6.36392 36.5314 7.81284 38.3593 9.64074C40.1872 11.4686 41.6361 13.6168 42.7061 16.0853C43.776 18.5537 44.311 21.1875 44.311 23.9867C44.311 26.7859 43.776 29.4158 42.7061 31.8764C41.6361 34.3371 40.1872 36.4897 38.3593 38.3342C36.5314 40.1788 34.3811 41.6341 31.9083 42.7C29.4356 43.7659 26.7928 44.2989 23.9798 44.2989Z" fill="black"/>
</g>
</svg>
