<svg width="25" height="25" viewBox="0 0 25 25" fill="none" xmlns="http://www.w3.org/2000/svg">
<path id="Vector" d="M16.1757 14.5885C17.7124 14.5886 19.1898 15.1819 20.2997 16.2447C21.4096 17.3075 22.0664 18.7578 22.1331 20.293L22.1391 20.5519V21.7445C22.1393 22.3463 21.912 22.926 21.5028 23.3672C21.0936 23.8085 20.5327 24.0788 19.9326 24.1239L19.7537 24.1299H3.05625C2.45445 24.1301 1.87483 23.9028 1.43356 23.4936C0.99229 23.0844 0.721997 22.5235 0.676862 21.9234L0.670898 21.7445V20.5519C0.670987 19.0151 1.2643 17.5378 2.32712 16.4278C3.38993 15.3179 4.8402 14.6611 6.37547 14.5944L6.63428 14.5885H16.1757ZM23.3317 13.3958C23.6481 13.3958 23.9514 13.5215 24.1751 13.7451C24.3988 13.9688 24.5244 14.2722 24.5244 14.5885C24.5244 14.9048 24.3988 15.2082 24.1751 15.4318C23.9514 15.6555 23.6481 15.7812 23.3317 15.7812H22.1391C21.8227 15.7812 21.5194 15.6555 21.2957 15.4318C21.072 15.2082 20.9464 14.9048 20.9464 14.5885C20.9464 14.2722 21.072 13.9688 21.2957 13.7451C21.5194 13.5215 21.8227 13.3958 22.1391 13.3958H23.3317ZM11.405 0.276367C12.9866 0.276367 14.5034 0.90465 15.6217 2.023C16.7401 3.14135 17.3684 4.65816 17.3684 6.23975C17.3684 7.82133 16.7401 9.33814 15.6217 10.4565C14.5034 11.5748 12.9866 12.2031 11.405 12.2031C9.82339 12.2031 8.30659 11.5748 7.18824 10.4565C6.06988 9.33814 5.4416 7.82133 5.4416 6.23975C5.4416 4.65816 6.06988 3.14135 7.18824 2.023C8.30659 0.90465 9.82339 0.276367 11.405 0.276367ZM23.3317 9.81777C23.6481 9.81777 23.9514 9.94343 24.1751 10.1671C24.3988 10.3908 24.5244 10.6941 24.5244 11.0104C24.5244 11.3268 24.3988 11.6301 24.1751 11.8538C23.9514 12.0775 23.6481 12.2031 23.3317 12.2031H20.9464C20.6301 12.2031 20.3267 12.0775 20.103 11.8538C19.8794 11.6301 19.7537 11.3268 19.7537 11.0104C19.7537 10.6941 19.8794 10.3908 20.103 10.1671C20.3267 9.94343 20.6301 9.81777 20.9464 9.81777H23.3317ZM23.3317 6.23975C23.6357 6.24008 23.9281 6.35648 24.1492 6.56517C24.3702 6.77385 24.5032 7.05906 24.521 7.36252C24.5389 7.66599 24.4401 7.96481 24.245 8.19792C24.0499 8.43103 23.7731 8.58085 23.4713 8.61675L23.3317 8.6251H19.7537C19.4497 8.62476 19.1573 8.50836 18.9363 8.29968C18.7152 8.091 18.5822 7.80579 18.5644 7.50232C18.5466 7.19885 18.6453 6.90004 18.8404 6.66692C19.0355 6.43381 19.3123 6.284 19.6142 6.2481L19.7537 6.23975H23.3317Z" fill="#414B59"/>
</svg>
